<?xml version="1.0" encoding="utf-8"?>
<!-- Generator: Adobe Illustrator 26.0.1, SVG Export Plug-In . SVG Version: 6.00 Build 0)  -->
<svg version="1.1" id="Layer_1" xmlns="http://www.w3.org/2000/svg" xmlns:xlink="http://www.w3.org/1999/xlink" x="0px" y="0px"
	 viewBox="0 0 362.2 360.8" style="enable-background:new 0 0 362.2 360.8;" xml:space="preserve">
<style type="text/css">
	.st0{fill:#FEFEFE;}
	.st1{fill:#050505;}
	.st2{fill:#FDFDFD;}
	.st3{fill:#F9F9F9;}
	.st4{fill:#F2F2F2;}
	.st5{fill:#1F1F1F;}
	.st6{fill:#979797;}
	.st7{fill:#FAFAFA;}
	.st8{fill:#232323;}
	.st9{fill:#CECECE;}
	.st10{fill:#060606;}
	.st11{fill:#070707;}
</style>
<rect x="-4.1" y="-6.2" class="st0" width="370.2" height="370.2"/>
<path class="st1" d="M305.7,53.4c7-2.5,14.8,0.7,17.9,7.2c1.4,2.9,2.8,5.4,6.8,5.7c3.9,0.3,7.1,5.4,7.6,9.7
	c0.4,3.6,0.2,7.1-0.4,10.6c-0.5,2.4,1,3.1,2.2,3.3c7,1.2,10,8.9,7.9,14.8c-1,2.9-0.6,6-1.2,8.9c-0.7,3.6-1.5,7.4-3.4,10.4
	c-2.3,3.7-2.1,7.3-2,11.2c0.4,11.8-0.5,23.6-1.7,35.4c-0.5,4.8-2.5,9.6-4.1,14.2c-3.2,9.3-4.5,18.9-6,28.6
	c-2.5,15.5-8.6,30.1-13.9,44.9c-0.5,1.3-0.9,2.6-0.8,4c0.4,15.7-1.3,31.1-6.4,46c-5.8,17-17.4,27.9-34.7,32.1
	c-9.6,2.4-17.9-1.7-25.1-8c-6.2-5.4-10.7-12.2-14.6-19.3c-0.7-1.3-1.1-2.8-1.1-4.3c0.2-7,0.5-14,0.2-20.9c-0.3-7.9,0.3-16-2.9-23.6
	c-2.2-5.3-2-11.1-2.2-16.7c-0.4-13.7,1.1-27.2,2.5-40.8c0.8-8.4,2.1-16.7,2.6-25.1c0.5-6.9-1.3-13.9-2.2-20.9
	c-0.7-5.3-2.2-10-5.1-14.5c-3-4.8-4-10.4-4.3-15.9c-0.5-7.3-0.6-14.6,0.2-21.9c0.5-4.5,0.5-9,1.1-13.4c0.9-7,3.6-13.6,5.6-20.3
	c0.9-3,0.8-6-1.2-7.8c-4.2-3.9-3.4-8.8-3-13.3c0.7-8.9,4-16.7,10.4-23.2c9.3-9.5,25-13.9,36.5-6c4.4,3,6.7,7.5,8.2,12.4
	c0.6,1.9,0.7,2.7,2.4,0.9c3.2-3.4,7.5-3.5,11.3-2c6.7,2.6,11.7,7.1,12.2,15.1C305,51.3,305.4,52.2,305.7,53.4z"/>
<path class="st1" d="M82.5,38.5c4.4-18.7,21.2-21.8,34.1-16.1c10.3,4.5,17.2,12.4,20.3,23.3c0.8,3.1,1.2,6.3,1.4,9.5
	c0.4,4.2,0.2,8.2-3.2,11.6c-2.1,2-2,5-1.1,7.9c2.1,6.6,4.8,13.1,5.5,20c1.5,15.3,3.3,30.6-0.7,45.8c-0.5,1.9-1.1,3.9-2.2,5.4
	c-4.4,5.7-4.8,12.6-5.8,19.3c-0.7,5-1.3,10-1.7,15.1c-0.3,3.2,1,6.3,1.2,9.6c0.6,8,1.9,16,2.5,24.1c0.7,8.6,1.4,17.3,1.6,26
	c0.2,9.1-0.2,18.2-3.1,27c-1.7,5.2-1.1,10.9-1.6,16.3c-0.6,6.2-0.4,12.3,0.1,18.2c0.8,10.3-4.5,17.4-10.2,24.6
	c-5.8,7.3-12.8,12.7-22.2,14.3c-8.9,1.4-16.7-1.6-23.8-6.6c-5-3.6-9.5-7.8-13.4-12.6c-4.2-5.2-5.8-11.7-7.7-18
	c-4-13.2-5.2-26.7-4.9-40.4c0-1.6-0.3-3.1-0.9-4.7C41,242.4,34,226.9,32.3,210.2c-1.2-12.3-5.5-23.5-8.7-35.1
	c-1.6-5.7-1.8-11.6-2.1-17.5c-0.5-9.1-1.2-18.3-0.3-27.5c0.3-3.3-2.2-6.2-3.4-9.3c-1.3-3.5-2.7-6.9-2.3-10.7c0.2-2.2-0.9-4-1.3-6
	c-1.5-7.2,1.1-11.8,7.9-14.2c1.5-0.5,3-1.1,2.4-3.7c-0.7-3.1-0.7-6.5-0.5-9.8c0.4-4.8,4.1-10,8.9-10.3c2.3-0.2,3.6-1.5,4.5-3.5
	c3.7-7.5,9.1-11.6,18.1-9.5c2.1,0.5,1.6-2.1,1.7-3c0.1-5.6,3.4-9.2,7.4-12.2C70.8,33.2,75.9,33.5,82.5,38.5z"/>
<path class="st0" d="M330.6,116c0-2-2.7-3.1-1.6-4.4s2.9,0.1,4.4,0.8c0.8,0.4,2,0.6,2.4-0.5c0.5-1.3-0.6-1.5-1.5-1.8
	c-5.7-2-9.4-9.3-3.2-16.3c4.1-4.6,12.4-2.6,14.4,3.4c1,3.1,1.4,6.4-0.9,9.2c-1.5,1.8-0.3,3.4-0.2,5.2c0.3,3.8-1.3,7.5-3.8,10.4
	c-2.7,3.1-3.4,6.3-3.1,10.4c0.8,12.5-0.6,24.9-2.7,37.2c-1.7,10.1-4.3,20-7.5,29.7c-1,3,0.1,6-0.4,9.2c-1.4,9.1-4.2,17.7-6.9,26.4
	c-2.5,7.9-5.3,15.8-8.5,23.5c-0.6,1.5-0.5,3-0.4,4.5c0.5,14.3-1.2,28.3-5.4,42c-5.1,16.5-15.8,27.2-32.3,31.9
	c-7.9,2.2-14.8-1-20.9-5.8c-6.6-5.3-11.2-12.3-15.3-19.6c-0.9-1.6-1.2-3.4-1.1-5.3c0.1-5.1,0.7-10.3,0.4-15.3
	c-0.5-10.1-0.1-20.1-3.3-30.1c-3.1-9.8-1.7-20.4-1-30.7c0.4-6.8,0.9-13.6,1.7-20.4c0.8-7,1.2-14,2.2-21c1.3-9-0.3-17.7-1.3-26.6
	c0-0.2-0.3-0.5-0.2-0.6c0.3-1.4-1.4-3.5-0.2-3.9c1.7-0.7,1.6,1.7,2.2,2.9c0.7,1.5,2.1,1.1,3,0.8c1.4-0.4,0.4-1.5,0.2-2.3
	c-1-3-2.6-5.7-5.1-7.7c-6.9-5.3-8.5-12.9-9.4-20.9c-1.3-11.7-0.2-23.4,1.2-34.9c0.8-6.4,3.2-12.7,5.4-18.9c1.5-4.3,1.2-8.2-1.5-11.4
	c-3.1-3.6-3.2-7.4-2.5-11.6c0.3-2.2,0.9-4.1,0.3-6.6c-0.7-3.1,1.6-6.3,3.3-8.8c6.4-9.6,14.9-16,27.2-15.4
	c10.1,0.4,17.4,8.1,18.4,17.8c0.6,5.2-0.5,10.2-2.7,15c-0.6,1.3-1.8,2.6-1.2,4.7c0.3,1.2-0.9,2.9-2.6,3.8c-1.9,0.9-3.6,2.1-5.3,3.3
	c-1.8,1.3-4.8,1.5-2.4,5.5c1.5,2.5-0.5,6.5-1.4,9.7c-0.5,2-0.8,2.8,1.8,2.2c7.4-1.7,14.6-0.2,21.6,2.1c7.8,2.5,14.8,6.9,21.4,11.5
	c5,3.4,9.9,7.3,13.7,12.3C322.4,113.7,325.7,116.4,330.6,116z"/>
<path class="st0" d="M291.9,86.4c-4.8-2.8-10.1-4-15.5-4.8c-1.1-0.2-2.7-0.6-1.7-2.4c2.5-4.5,3.5-9.5,4.9-14.3
	c0.8-2.7,2.2-2.1,3.3-0.9c1.5,1.6,3.2,1.6,5.1,1.6c0.7,0,1.5,0.1,1.6-0.9c0.1-1.3-0.9-1.1-1.7-1.1c-3.8,0.2-6.3-2-8.3-4.7
	c-1.6-2.1-2.3-4.4-1.3-7.1c0.7-1.9,1-4,1.4-6c0.7-4.3,3-7.4,7.2-8.3c4.8-1.1,8.7,1,12,4.5c2.4,2.6,3.6,5.8,4.1,9.3
	c0.2,1.1,0.3,2.2-0.2,3c-3.1,4.8-2.9,10.9-6.4,15.5c-1.3,1.8-1.6,3.3-1.5,5.6C295.1,79,293.6,82.7,291.9,86.4z"/>
<path class="st2" d="M305,78.7c-4.4-3.1-6.1-7-3.8-12.2c1.2-2.8,0.9-6.1,3.2-8.6c4.9-5.3,11.7-3.1,16.1,1.3c0.8,0.8,1.4,1.8,2,2.8
	c1.3,1.9,1.3,3.4-1,4.9c-5.3,3.4-7,7.2-5.2,13.2c1,3.5-0.1,6.5-0.3,9.7c-0.2,1.9-0.6,3.6,1.4,4.9c1.4,0.9,1.1,2.1,0,3.1
	c-0.2,0.2-0.6,0.3-0.9,0.5c-0.8,0.8-0.2,2.9-1.9,2.7c-1.5-0.2-3.1-1.2-3.8-2.7c-1.4-2.7-4.3-3.3-6.4-4.8c-2-1.5-3.4-2.8-1.9-5.4
	s0.9-5.6,1.6-8.4c1.7,0.4,3.3,1,5,1.4C307.7,80.3,305.7,80.8,305,78.7z"/>
<path class="st2" d="M327.1,113.1c-5.1-2.3-7.1-6.6-10.4-9.6c-1-0.9,0.3-1.4,0.7-2c2.6-3.8,5.1-7.9,4-12.7c-0.4-1.9,3-1.2,1.4-3
	c-0.9-1-2.2-1.6-3.1-2.8c-2.3-3.3-2.6-7.6-0.5-11c2.1-3.3,5.9-5.1,9.5-4.5c3.6,0.7,5.9,4.1,7.2,8.4c1.5,4.6-1.5,8.5-1.3,12.8
	c0,0.8-0.4,0.9-1,1.1c-7.2,2.7-8.9,8.9-7,15C327.6,107.7,325.6,110,327.1,113.1z"/>
<path class="st3" d="M277.4,60.8c0.8,0.9,0.1,1.7-0.2,2.5c-1.7,4.3-1.8,9.2-4.4,13.2c-0.2,0.4-0.1,1.2-0.7,1.4c-2,0.6-3.7,3.1-5.8,2
	c-1.8-0.9,0.4-2.9,0-4.4c-0.8-3.9,1.1-5.9,4.5-8C273.2,66,275.1,63.1,277.4,60.8z"/>
<path class="st4" d="M301.1,83.4c-0.5,1.6-1.1,3.7-1.8,5.7c-0.3,1-1.1,0.9-1.6,0.4c-1-1-3.4-0.8-2.8-3.1c1.1-3.7,2.4-7.4,2.9-11.3
	c0.1-0.5,0.5-0.9,1-0.7c0.4,0.1,1,0.6,1,0.8C299.1,78,301.2,80.3,301.1,83.4z"/>
<path class="st5" d="M305,78.7c2.3,1.5,5,1.4,7.5,2.1c-3.1,1.6-5.8,1.1-8.4-1.2C304.4,79.3,304.7,79,305,78.7z"/>
<path class="st6" d="M319,85.6c0.8,2.2,0.6,4,0.7,5.8c0,0.6-0.1,1.2-0.8,1.3c-0.7,0.1-1.2-0.7-1-1.1C318.6,89.9,317.6,87.8,319,85.6
	z"/>
<path class="st0" d="M122.1,160.7c5.1,2.4,3.4-4.3,6.6-4.6c-1.4,7.3-2.5,14.6-2.8,21.9c-0.4,8.9,1.7,17.7,2.3,26.5
	c0.4,7,1.3,14,2,21c0.8,8,0.6,16,0.5,24c-0.1,4.9-0.5,9.8-2.5,14.5c-1.4,3.5-1.9,7.3-1.9,11.2c0,8.2-0.9,16.5,0,24.7
	c0.8,7-1.3,12.9-5.4,18.4c-3.8,5.1-7.7,10.1-13,13.9c-9.3,6.6-18.8,6.3-28.4,1c-6.6-3.7-11.9-8.9-16.6-14.6
	c-3.7-4.6-5.1-10.3-6.8-15.8c-2.9-9.3-5-18.8-4.7-28.5c0.3-9.8-1.5-18.9-5.1-28c-4.9-12.4-10-25.1-10.8-38.5c-0.9-14.2-7-27-8.6-41
	c-1.4-12.3-2.9-24.5-1.9-36.9c0.2-2.2-0.6-4.5-2.2-6.3c-2.6-2.9-4.3-6.2-5-10.1c-0.1-0.8-0.5-1.9-0.1-2.4c1.7-2.2,0.2-3.7-0.7-5.6
	c-1.9-3.7-1.6-7.4,0.9-10.7c2.2-3,5.3-4,8.9-3.3c3.7,0.7,6.5,4.1,7.1,8.5c0.6,4.3-1.5,8-5.7,10c-0.9,0.4-2.4,0.4-1.9,1.9
	c0.4,1.1,1.6,0.8,2.4,0.5c1.4-0.5,3.1-2.3,4.3-0.9c1.1,1.4-1.3,2.6-1.7,4.5c4.7,0.6,8-2.1,10.6-5.2c7.8-9.2,17.7-15.3,28.2-21
	c5.4-3,11.2-4.2,17.1-5.6c3.8-0.9,7.6-0.4,11.4,0.1c2,0.3,3.2,0.7,2.1-2.2c-0.9-2.3-1.1-4.9-1.6-7.4c-0.2-0.9-0.4-2.2,0-2.7
	c3-3,0.1-3.6-1.7-4.7c-1.8-1.1-3.5-2.2-5.3-3.3c-2-1.3-3-2.7-3.2-5.5c-0.2-3.2-2.5-6.2-3.3-9.5c-1.7-6.9-0.8-13.4,3.5-19.1
	c5.7-7.7,13.9-9.1,22.4-6.8c11.3,3.1,19.3,10.7,22,22.1c1.1,4.6,1.4,9.7,1.3,14.6c0,1.2-1,2-1.7,2.9c-3.2,4.1-4.7,8.4-2.6,13.8
	c4.6,12,6.3,24.4,6.7,37.3c0.3,9.5,0.1,18.6-2.9,27.6c-1.2,3.7-3.5,6.5-6.4,8.9C124.9,153.3,122.9,156.6,122.1,160.7z"/>
<path class="st0" d="M70.2,86.3c-1.5-4.1-3.6-8.1-2.7-12.7c0.1-0.6,0-1.6-0.4-2c-3.8-3.6-3.4-9.1-5.9-13.2c-3.7-6.1-1.8-11.2,2-16.3
	c2.6-3.5,8.2-5.9,12.2-4.8c4.6,1.2,6.6,4.8,7.4,9.1c0.3,1.7,0.5,3.4,0.9,5c1.5,5.8-2.7,11.6-8.8,12.1c-0.8,0.1-2.4-0.7-2.3,1.1
	c0.1,1.3,1.4,0.8,2.3,0.9c1.7,0.1,3.1-0.3,4.3-1.6c1.3-1.3,2.6-1.6,3.4,1c1.4,4.7,2.3,9.6,4.7,14c1,1.8-0.2,2.4-1.7,2.7
	C83,82,80.3,82.2,77.8,83S72.9,85.1,70.2,86.3z"/>
<path class="st2" d="M58.3,79.6c0.1,3.5,0.4,6.9,2,10.1c0.9,1.8-0.9,2.6-1.5,3c-3.2,2.1-6.5,4-8.9,7.1c-0.5,0.7-3.1,1.6-3,0.9
	c0.1-2.4-5.2-3.2-1.8-6.4c3.1-2.9,0.4-6.2,0.1-9.2c-0.1-0.8-0.4-1.4,0-2.3c2.7-6.2,1-13.1-4.6-15.9c-1.5-0.7-2.4-1.9-1.6-3.6
	c1.7-3.8,7-8.4,11.5-8.4c4.9,0,8.5,2.6,9.6,7.4c0.3,1.2,0.3,2.6,0.8,3.7c2.6,5.6,0.9,9.8-4,13c-1,1.8-2.8,1.7-4.5,2.2
	C54.5,80.9,56.4,80.1,58.3,79.6z"/>
<path class="st2" d="M35.8,112.8c-0.2-3.5-0.6-6.4,0-9.7c1.3-6.5-1.1-10.3-6.7-13.2c-0.6-0.3-1.5,0-1.5-1c0-4.5-2.8-8.6-1.3-13.5
	c1.2-3.9,4.3-7.6,7.8-7.9c4-0.4,8.2,2,9.6,5.4c1.7,4.3,0.6,8.7-2.5,11.6c-0.5,0.5-4.7,1.4-0.5,3c0.2,0.1,0.2,0.9,0.1,1.3
	c-0.7,4.7,1.2,8.5,3.9,12.1c1.1,1.4,1.2,2.4-0.3,3.7C41.5,107.2,39.9,110.9,35.8,112.8z"/>
<path class="st7" d="M84.4,59.5c2.7,3.7,5.3,7.2,9.3,9.5c1.7,1,2.5,2,2.3,4c-0.2,1.5-0.2,3.1,0.2,4.5c0.8,2.7,0,3.3-2.4,2.3
	c-2-0.8-3.9-1.6-4.8-4C86.9,70.5,85.4,65.1,84.4,59.5z"/>
<path class="st4" d="M61.1,83.3c0-3.1,2-5.3,1.4-7.9c-0.1-0.2,0.5-0.8,0.9-0.9c0.6-0.1,1,0.3,1.1,1c0.5,3.5,1.3,7,2.7,10.3
	c1.1,2.6-1.5,3.1-2.8,3.8c-2.1,1.1-1.6-1.3-1.9-2.2C61.7,85.9,61.4,84.3,61.1,83.3z"/>
<path class="st8" d="M58.3,79.6c-2.1,1.9-4.6,2.5-7.4,2.1c-0.4-0.1-1,0-1-0.6c-0.1-0.8,0.5-1,1.1-0.9c2.1,0.1,4.1-0.3,6-1.2
	C57.4,79.2,57.9,79.4,58.3,79.6z"/>
<path class="st9" d="M43.4,86.4c0.3,1.7,0.7,3.3,0.9,5c0.1,0.6-0.1,1.2-0.8,1.3c-0.8,0.1-0.8-0.6-0.8-1.2c0.1-1.7,0.2-3.4,0.3-5
	C43.2,86.4,43.3,86.4,43.4,86.4z"/>
</svg>
